<svg viewBox="0 0 17 17"><path d="M2.5,3c0-0.7,0.3-1.3,0.7-1.8C3.7,0.8,4.3,0.5,5,0.5h8.8c0.2,0,0.4,0.1,0.5,0.2c0.1,0.1,0.2,0.3,0.2,0.5v12.5c0,0.2-0.1,0.4-0.2,0.5c-0.1,0.1-0.3,0.2-0.5,0.2h-2.5c-0.2,0-0.4-0.1-0.5-0.2c-0.1-0.1-0.2-0.3-0.2-0.5s0.1-0.4,0.2-0.5c0.1-0.1,0.3-0.2,0.5-0.2H13v-2H5c-0.2,0-0.4,0.1-0.6,0.2c-0.2,0.1-0.3,0.3-0.4,0.4C4,11.8,4,12,4,12.2c0,0.2,0.1,0.4,0.3,0.5c0.1,0.1,0.1,0.2,0.2,0.2c0,0.1,0.1,0.2,0.1,0.3c0,0.1,0,0.2-0.1,0.3c0,0.1-0.1,0.2-0.2,0.2c-0.1,0.1-0.2,0.1-0.2,0.2C3.9,14,3.8,14,3.7,14c-0.1,0-0.2,0-0.3-0.1c-0.1,0-0.2-0.1-0.2-0.2c-0.5-0.5-0.7-1.1-0.7-1.8V3z M13,2H5C4.7,2,4.5,2.1,4.3,2.3C4.1,2.5,4,2.7,4,3v6.7c0.3-0.1,0.7-0.2,1-0.2h8V2z M5.5,12.8c0-0.1,0-0.1,0.1-0.2c0,0,0.1-0.1,0.2-0.1h3.5c0.1,0,0.1,0,0.2,0.1c0,0,0.1,0.1,0.1,0.2V16c0,0,0,0.1,0,0.1c0,0-0.1,0.1-0.1,0.1c0,0-0.1,0-0.1,0c0,0-0.1,0-0.1,0l-1.5-1.1c0,0-0.1-0.1-0.2-0.1s-0.1,0-0.2,0.1l-1.4,1.1c0,0-0.1,0-0.1,0s-0.1,0-0.1,0c0,0-0.1-0.1-0.1-0.1c0,0,0-0.1,0-0.1V12.8z"/></svg>